<?xml version="1.0" encoding="UTF-8" standalone="no"?>
<!DOCTYPE svg PUBLIC "-//W3C//DTD SVG 1.1//EN" "http://www.w3.org/Graphics/SVG/1.1/DTD/svg11.dtd">
<svg width="100%" height="100%" viewBox="0 0 497 425" version="1.1" xmlns="http://www.w3.org/2000/svg" xmlns:xlink="http://www.w3.org/1999/xlink" xml:space="preserve" xmlns:serif="http://www.serif.com/" style="fill-rule:evenodd;clip-rule:evenodd;stroke-linejoin:round;stroke-miterlimit:2;">
    <g transform="matrix(1,0,0,1,-234,-236)">
        <g transform="matrix(0.323568,0,0,0.415039,234,236)">
            <rect x="0" y="0" width="1536" height="1024" style="fill:rgb(251,250,251);fill-rule:nonzero;"/>
        </g>
        <g transform="matrix(1,0,0,1,319,254)">
            <path d="M0,0C2.249,-0.01 4.498,-0.017 6.748,-0.023C8,-0.027 9.253,-0.031 10.543,-0.036C14.238,0.002 17.627,0.298 21.27,0.883C22.495,1.077 23.72,1.272 24.982,1.472C26.878,1.795 26.878,1.795 28.812,2.125C29.479,2.236 30.146,2.347 30.833,2.461C44.049,4.668 57.058,7.527 70,11C71.517,11.406 71.517,11.406 73.065,11.82C102.354,19.771 134.722,30.768 159.113,49.375C161.825,51.316 161.825,51.316 164.469,50.496C165.304,50.002 166.139,49.509 167,49C168.5,48.12 168.5,48.12 170.031,47.223C171.188,46.504 172.344,45.784 173.5,45.062C213.376,20.818 258.061,7.939 304,1C305.261,0.801 306.521,0.603 307.82,0.398C311.472,-0.052 315.084,-0.04 318.761,-0.025C319.93,-0.021 321.099,-0.018 322.303,-0.014C323.193,-0.009 324.083,-0.005 325,0C325.023,40.24 325.04,80.479 325.051,120.719C325.052,125.464 325.054,130.209 325.055,134.955C325.055,136.372 325.055,136.372 325.056,137.818C325.06,153.136 325.068,168.455 325.077,183.773C325.086,199.479 325.092,215.185 325.094,230.891C325.095,240.591 325.1,250.291 325.108,259.99C325.113,266.632 325.115,273.274 325.114,279.916C325.113,283.754 325.114,287.592 325.119,291.43C325.125,295.581 325.123,299.732 325.12,303.883C325.125,305.723 325.125,305.723 325.129,307.6C325.127,308.703 325.125,309.806 325.123,310.942C325.123,311.901 325.124,312.861 325.124,313.85C325,316 325,316 324,317C322.242,317.111 320.48,317.156 318.719,317.176C292.23,317.664 265.605,319.819 240,327C239.136,327.241 238.271,327.481 237.38,327.729C220.787,332.484 203.853,339.204 191,351C192.074,350.684 192.074,350.684 193.17,350.361C221.415,342.118 249.631,336.507 279,334C279.839,333.919 280.678,333.839 281.543,333.756C288.679,333.102 295.727,332.866 302.891,332.902C304.497,332.904 304.497,332.904 306.135,332.907C309.507,332.912 312.878,332.925 316.25,332.938C318.556,332.943 320.862,332.947 323.168,332.951C328.779,332.962 334.389,332.979 340,333C340,332.353 339.999,331.706 339.999,331.039C339.976,292.727 339.959,254.415 339.949,216.103C339.948,211.508 339.946,206.913 339.945,202.318C339.945,200.945 339.945,200.945 339.944,199.545C339.94,184.712 339.932,169.878 339.923,155.045C339.914,139.836 339.908,124.627 339.906,109.418C339.905,100.026 339.9,90.633 339.892,81.241C339.887,74.809 339.885,68.377 339.886,61.946C339.887,58.229 339.886,54.513 339.881,50.796C339.875,46.776 339.877,42.757 339.88,38.737C339.875,36.956 339.875,36.956 339.871,35.138C339.873,34.07 339.875,33.002 339.877,31.902C339.877,30.973 339.876,30.044 339.876,29.086C340,27 340,27 341,26C358.992,23.674 358.992,23.674 366,29C368.607,32.594 369.376,35.083 369.38,39.497C369.389,40.596 369.397,41.694 369.406,42.826C369.4,44.028 369.394,45.23 369.388,46.468C369.396,48.389 369.396,48.389 369.404,50.349C369.418,53.903 369.414,57.456 369.407,61.01C369.402,64.843 369.415,68.676 369.425,72.509C369.442,80.018 369.443,87.527 369.438,95.036C369.434,101.14 369.435,107.244 369.44,113.348C369.441,114.217 369.442,115.085 369.443,115.98C369.444,117.744 369.446,119.508 369.447,121.273C369.461,137.823 369.456,154.373 369.444,170.924C369.434,186.063 369.447,201.201 369.471,216.34C369.495,231.885 369.505,247.43 369.498,262.974C369.495,271.701 369.497,280.428 369.515,289.155C369.529,296.586 369.53,304.016 369.513,311.447C369.504,315.237 369.502,319.027 369.517,322.818C369.534,326.929 369.519,331.04 369.501,335.151C369.511,336.346 369.52,337.541 369.53,338.772C369.469,345.642 368.727,350.17 365,356C360.374,359.677 355.471,360.12 349.709,360.145C348.663,360.152 347.616,360.159 346.537,360.166C345.399,360.168 344.261,360.171 343.088,360.174C341.277,360.184 341.277,360.184 339.43,360.194C336.808,360.208 334.186,360.22 331.565,360.23C327.406,360.245 323.247,360.269 319.089,360.295C307.264,360.366 295.439,360.425 283.615,360.477C277.08,360.505 270.546,360.541 264.012,360.583C260.562,360.606 257.112,360.624 253.662,360.634C249.8,360.646 245.938,360.67 242.076,360.697C240.396,360.698 240.396,360.698 238.682,360.699C227.749,360.798 216.522,361.249 206.812,366.688C206.147,367.04 205.482,367.392 204.797,367.755C197.593,371.63 190.723,375.98 184.125,380.812C177.304,385.587 171.284,385.366 163.188,385.375C162.037,385.399 160.887,385.424 159.701,385.449C149.215,385.485 143.727,382.532 135.562,376.25C130.508,372.549 125.355,369.305 119.75,366.5C118.842,366.011 118.842,366.011 117.916,365.513C103.431,358.623 83.888,360.706 68.347,360.695C64.281,360.691 60.216,360.675 56.15,360.654C46.071,360.606 35.992,360.574 25.913,360.553C18.038,360.536 10.162,360.514 2.287,360.47C-1.091,360.452 -4.468,360.44 -7.846,360.441C-11.6,360.441 -15.354,360.423 -19.108,360.401C-20.767,360.408 -20.767,360.408 -22.46,360.415C-29.585,360.348 -34.759,359.729 -40.375,355C-43.079,351.672 -43.127,348.812 -43.137,344.678C-43.142,343.568 -43.147,342.457 -43.152,341.313C-43.153,339.475 -43.153,339.475 -43.154,337.6C-43.158,336.303 -43.163,335.005 -43.167,333.668C-43.179,330.059 -43.185,326.45 -43.189,322.84C-43.195,318.951 -43.207,315.061 -43.218,311.171C-43.242,301.776 -43.257,292.38 -43.27,282.984C-43.273,280.331 -43.277,277.678 -43.281,275.025C-43.307,258.559 -43.329,242.093 -43.341,225.627C-43.344,221.812 -43.347,217.998 -43.35,214.184C-43.351,213.236 -43.352,212.288 -43.352,211.311C-43.365,195.944 -43.398,180.577 -43.44,165.209C-43.482,149.44 -43.506,133.67 -43.511,117.901C-43.515,109.044 -43.526,100.186 -43.559,91.329C-43.587,83.788 -43.598,76.248 -43.587,68.707C-43.582,64.858 -43.585,61.01 -43.609,57.161C-43.636,52.992 -43.624,48.823 -43.608,44.654C-43.622,43.433 -43.636,42.212 -43.65,40.954C-43.564,31.854 -43.564,31.854 -40.603,28.791C-32.924,23.506 -24.867,24.575 -16,26C-15,27 -15,27 -14.876,29.086C-14.876,30.015 -14.877,30.945 -14.877,31.902C-14.875,32.97 -14.873,34.038 -14.871,35.138C-14.875,36.92 -14.875,36.92 -14.88,38.737C-14.879,39.988 -14.878,41.238 -14.877,42.526C-14.875,46.013 -14.879,49.5 -14.884,52.986C-14.888,56.74 -14.887,60.494 -14.886,64.248C-14.886,70.757 -14.889,77.266 -14.894,83.776C-14.902,93.187 -14.905,102.598 -14.906,112.01C-14.908,127.277 -14.915,142.545 -14.925,157.813C-14.934,172.648 -14.941,187.483 -14.945,202.318C-14.945,203.688 -14.945,203.688 -14.946,205.087C-14.947,209.67 -14.948,214.254 -14.95,218.838C-14.96,256.892 -14.978,294.946 -15,333C-14.387,332.996 -13.774,332.991 -13.143,332.987C-6.635,332.942 -0.127,332.912 6.381,332.89C8.794,332.88 11.207,332.867 13.621,332.849C33.634,332.707 53.478,333.414 73.25,336.75C74.774,337.002 74.774,337.002 76.329,337.258C95.864,340.592 115.038,345.269 134,351C97.758,321.845 48.124,317.671 3.144,317.142C1,317 1,317 0,316C-0.097,314.316 -0.124,312.628 -0.123,310.942C-0.125,309.839 -0.127,308.736 -0.129,307.6C-0.126,306.374 -0.123,305.147 -0.12,303.883C-0.121,302.592 -0.122,301.301 -0.123,299.97C-0.125,296.37 -0.121,292.769 -0.116,289.168C-0.112,285.292 -0.113,281.415 -0.114,277.538C-0.114,270.816 -0.111,264.094 -0.106,257.372C-0.098,247.653 -0.095,237.934 -0.094,228.215C-0.092,212.448 -0.085,196.682 -0.075,180.915C-0.066,165.595 -0.059,150.275 -0.055,134.955C-0.055,134.011 -0.054,133.068 -0.054,132.095C-0.053,127.362 -0.052,122.628 -0.05,117.894C-0.04,78.596 -0.022,39.298 0,0Z" style="fill:rgb(248,248,248);fill-rule:nonzero;"/>
        </g>
        <g transform="matrix(1,0,0,1,319,254)">
            <path d="M0,0C2.249,-0.01 4.498,-0.017 6.748,-0.023C8,-0.027 9.253,-0.031 10.543,-0.036C14.238,0.002 17.627,0.298 21.27,0.883C22.495,1.077 23.72,1.272 24.982,1.472C26.878,1.795 26.878,1.795 28.812,2.125C29.479,2.236 30.146,2.347 30.833,2.461C44.049,4.668 57.058,7.527 70,11C71.517,11.406 71.517,11.406 73.065,11.82C102.354,19.771 134.722,30.768 159.113,49.375C161.825,51.316 161.825,51.316 164.469,50.496C165.304,50.002 166.139,49.509 167,49C168.5,48.12 168.5,48.12 170.031,47.223C171.188,46.504 172.344,45.784 173.5,45.062C213.376,20.818 258.061,7.939 304,1C305.261,0.801 306.521,0.603 307.82,0.398C311.472,-0.052 315.084,-0.04 318.761,-0.025C319.93,-0.021 321.099,-0.018 322.303,-0.014C323.193,-0.009 324.083,-0.005 325,0C325.023,40.24 325.04,80.479 325.051,120.719C325.052,125.464 325.054,130.209 325.055,134.955C325.055,136.372 325.055,136.372 325.056,137.818C325.06,153.136 325.068,168.455 325.077,183.773C325.086,199.479 325.092,215.185 325.094,230.891C325.095,240.591 325.1,250.291 325.108,259.99C325.113,266.632 325.115,273.274 325.114,279.916C325.113,283.754 325.114,287.592 325.119,291.43C325.125,295.581 325.123,299.732 325.12,303.883C325.125,305.723 325.125,305.723 325.129,307.6C325.127,308.703 325.125,309.806 325.123,310.942C325.123,311.901 325.124,312.861 325.124,313.85C325,316 325,316 324,317C322.242,317.111 320.48,317.156 318.719,317.176C292.23,317.664 265.605,319.819 240,327C239.136,327.241 238.271,327.481 237.38,327.729C220.787,332.484 203.853,339.204 191,351C192.074,350.684 192.074,350.684 193.17,350.361C221.415,342.118 249.631,336.507 279,334C279.839,333.919 280.678,333.839 281.543,333.756C288.679,333.102 295.727,332.866 302.891,332.902C304.497,332.904 304.497,332.904 306.135,332.907C309.507,332.912 312.878,332.925 316.25,332.938C318.556,332.943 320.862,332.947 323.168,332.951C328.779,332.962 334.389,332.979 340,333C340,332.353 339.999,331.706 339.999,331.039C339.976,292.727 339.959,254.415 339.949,216.103C339.948,211.508 339.946,206.913 339.945,202.318C339.945,200.945 339.945,200.945 339.944,199.545C339.94,184.712 339.932,169.878 339.923,155.045C339.914,139.836 339.908,124.627 339.906,109.418C339.905,100.026 339.9,90.633 339.892,81.241C339.887,74.809 339.885,68.377 339.886,61.946C339.887,58.229 339.886,54.513 339.881,50.796C339.875,46.776 339.877,42.757 339.88,38.737C339.875,36.956 339.875,36.956 339.871,35.138C339.873,34.07 339.875,33.002 339.877,31.902C339.877,30.973 339.876,30.044 339.876,29.086C340,27 340,27 341,26C358.992,23.674 358.992,23.674 366,29C368.607,32.594 369.376,35.083 369.38,39.497C369.389,40.596 369.397,41.694 369.406,42.826C369.4,44.028 369.394,45.23 369.388,46.468C369.396,48.389 369.396,48.389 369.404,50.349C369.418,53.903 369.414,57.456 369.407,61.01C369.402,64.843 369.415,68.676 369.425,72.509C369.442,80.018 369.443,87.527 369.438,95.036C369.434,101.14 369.435,107.244 369.44,113.348C369.441,114.217 369.442,115.085 369.443,115.98C369.444,117.744 369.446,119.508 369.447,121.273C369.461,137.823 369.456,154.373 369.444,170.924C369.434,186.063 369.447,201.201 369.471,216.34C369.495,231.885 369.505,247.43 369.498,262.974C369.495,271.701 369.497,280.428 369.515,289.155C369.529,296.586 369.53,304.016 369.513,311.447C369.504,315.237 369.502,319.027 369.517,322.818C369.534,326.929 369.519,331.04 369.501,335.151C369.511,336.346 369.52,337.541 369.53,338.772C369.469,345.642 368.727,350.17 365,356C360.374,359.677 355.471,360.12 349.709,360.145C348.663,360.152 347.616,360.159 346.537,360.166C345.399,360.168 344.261,360.171 343.088,360.174C341.277,360.184 341.277,360.184 339.43,360.194C336.808,360.208 334.186,360.22 331.565,360.23C327.406,360.245 323.247,360.269 319.089,360.295C307.264,360.366 295.439,360.425 283.615,360.477C277.08,360.505 270.546,360.541 264.012,360.583C260.562,360.606 257.112,360.624 253.662,360.634C249.8,360.646 245.938,360.67 242.076,360.697C240.396,360.698 240.396,360.698 238.682,360.699C227.749,360.798 216.522,361.249 206.812,366.688C206.147,367.04 205.482,367.392 204.797,367.755C197.593,371.63 190.723,375.98 184.125,380.812C177.304,385.587 171.284,385.366 163.188,385.375C162.037,385.399 160.887,385.424 159.701,385.449C149.215,385.485 143.727,382.532 135.562,376.25C130.508,372.549 125.355,369.305 119.75,366.5C118.842,366.011 118.842,366.011 117.916,365.513C103.431,358.623 83.888,360.706 68.347,360.695C64.281,360.691 60.216,360.675 56.15,360.654C46.071,360.606 35.992,360.574 25.913,360.553C18.038,360.536 10.162,360.514 2.287,360.47C-1.091,360.452 -4.468,360.44 -7.846,360.441C-11.6,360.441 -15.354,360.423 -19.108,360.401C-20.767,360.408 -20.767,360.408 -22.46,360.415C-29.585,360.348 -34.759,359.729 -40.375,355C-43.079,351.672 -43.127,348.812 -43.137,344.678C-43.142,343.568 -43.147,342.457 -43.152,341.313C-43.153,339.475 -43.153,339.475 -43.154,337.6C-43.158,336.303 -43.163,335.005 -43.167,333.668C-43.179,330.059 -43.185,326.45 -43.189,322.84C-43.195,318.951 -43.207,315.061 -43.218,311.171C-43.242,301.776 -43.257,292.38 -43.27,282.984C-43.273,280.331 -43.277,277.678 -43.281,275.025C-43.307,258.559 -43.329,242.093 -43.341,225.627C-43.344,221.812 -43.347,217.998 -43.35,214.184C-43.351,213.236 -43.352,212.288 -43.352,211.311C-43.365,195.944 -43.398,180.577 -43.44,165.209C-43.482,149.44 -43.506,133.67 -43.511,117.901C-43.515,109.044 -43.526,100.186 -43.559,91.329C-43.587,83.788 -43.598,76.248 -43.587,68.707C-43.582,64.858 -43.585,61.01 -43.609,57.161C-43.636,52.992 -43.624,48.823 -43.608,44.654C-43.622,43.433 -43.636,42.212 -43.65,40.954C-43.564,31.854 -43.564,31.854 -40.603,28.791C-32.924,23.506 -24.867,24.575 -16,26C-15,27 -15,27 -14.876,29.086C-14.876,30.015 -14.877,30.945 -14.877,31.902C-14.875,32.97 -14.873,34.038 -14.871,35.138C-14.875,36.92 -14.875,36.92 -14.88,38.737C-14.879,39.988 -14.878,41.238 -14.877,42.526C-14.875,46.013 -14.879,49.5 -14.884,52.986C-14.888,56.74 -14.887,60.494 -14.886,64.248C-14.886,70.757 -14.889,77.266 -14.894,83.776C-14.902,93.187 -14.905,102.598 -14.906,112.01C-14.908,127.277 -14.915,142.545 -14.925,157.813C-14.934,172.648 -14.941,187.483 -14.945,202.318C-14.945,203.688 -14.945,203.688 -14.946,205.087C-14.947,209.67 -14.948,214.254 -14.95,218.838C-14.96,256.892 -14.978,294.946 -15,333C-14.387,332.996 -13.774,332.991 -13.143,332.987C-6.635,332.942 -0.127,332.912 6.381,332.89C8.794,332.88 11.207,332.867 13.621,332.849C33.634,332.707 53.478,333.414 73.25,336.75C74.774,337.002 74.774,337.002 76.329,337.258C95.864,340.592 115.038,345.269 134,351C97.758,321.845 48.124,317.671 3.144,317.142C1,317 1,317 0,316C-0.097,314.316 -0.124,312.628 -0.123,310.942C-0.125,309.839 -0.127,308.736 -0.129,307.6C-0.126,306.374 -0.123,305.147 -0.12,303.883C-0.121,302.592 -0.122,301.301 -0.123,299.97C-0.125,296.37 -0.121,292.769 -0.116,289.168C-0.112,285.292 -0.113,281.415 -0.114,277.538C-0.114,270.816 -0.111,264.094 -0.106,257.372C-0.098,247.653 -0.095,237.934 -0.094,228.215C-0.092,212.448 -0.085,196.682 -0.075,180.915C-0.066,165.595 -0.059,150.275 -0.055,134.955C-0.055,134.011 -0.054,133.068 -0.054,132.095C-0.053,127.362 -0.052,122.628 -0.05,117.894C-0.04,78.596 -0.022,39.298 0,0ZM19,24C18.977,58.252 18.96,92.504 18.949,126.756C18.948,130.795 18.946,134.835 18.945,138.874C18.945,139.678 18.945,140.483 18.944,141.311C18.94,154.35 18.932,167.389 18.923,180.429C18.914,193.798 18.908,207.167 18.906,220.536C18.905,228.792 18.9,237.049 18.892,245.305C18.887,250.959 18.885,256.612 18.886,262.266C18.887,265.533 18.886,268.8 18.881,272.067C18.876,275.6 18.877,279.134 18.88,282.667C18.877,283.711 18.874,284.755 18.871,285.83C18.873,286.769 18.875,287.708 18.877,288.676C18.877,289.493 18.876,290.309 18.876,291.151C18.797,293.017 18.797,293.017 20,294C21.594,294.24 23.197,294.421 24.801,294.578C25.826,294.684 26.852,294.79 27.909,294.9C29.594,295.073 29.594,295.073 31.312,295.25C77.039,300.282 125.431,310.494 162,340C162.643,339.587 163.286,339.175 163.949,338.75C165.885,337.513 167.824,336.282 169.766,335.055C171.829,333.744 173.882,332.417 175.922,331.07C211.536,308.096 256.071,299.682 297.549,294.95C298.99,294.784 298.99,294.784 300.461,294.613C301.315,294.518 302.169,294.423 303.048,294.325C304.999,294.194 304.999,294.194 306,293C306.097,291.561 306.124,290.118 306.123,288.676C306.125,287.737 306.127,286.798 306.129,285.83C306.125,284.265 306.125,284.265 306.12,282.667C306.121,281.568 306.122,280.469 306.123,279.336C306.125,275.622 306.119,271.907 306.114,268.193C306.113,265.543 306.113,262.892 306.114,260.242C306.114,254.52 306.111,248.798 306.106,243.077C306.098,234.804 306.095,226.531 306.094,218.258C306.092,204.837 306.085,191.416 306.075,177.995C306.066,164.955 306.059,151.915 306.055,138.874C306.055,138.071 306.054,137.268 306.054,136.44C306.053,132.411 306.052,128.381 306.05,124.352C306.04,90.901 306.022,57.451 306,24C302.967,24.309 299.935,24.621 296.903,24.935C296.051,25.021 295.198,25.108 294.32,25.197C287.766,25.878 281.329,26.844 274.875,28.188C273.834,28.402 272.792,28.616 271.719,28.837C236.228,36.367 195.976,48.6 168.387,73.344C165.241,75.527 163.766,75.658 160,75C157.475,73.503 155.263,72.009 152.938,70.25C130.041,53.837 104.808,43.276 78,35C77.278,34.77 76.556,34.539 75.812,34.302C59.372,29.094 41.94,25.867 24.766,24.469C23.686,24.381 22.606,24.292 21.494,24.201C20.671,24.135 19.848,24.068 19,24Z" style="fill:rgb(27,59,82);fill-rule:nonzero;"/>
        </g>
        <g transform="matrix(1,0,0,1,507.5,430.5)">
            <path d="M0,0C2.836,0.548 5.673,1.093 8.51,1.637C10.476,2.014 12.442,2.392 14.407,2.772C21.581,4.152 28.768,5.448 35.965,6.707C37.99,7.064 40.014,7.421 42.039,7.777C44.974,8.294 47.91,8.808 50.847,9.311C53.565,9.777 56.281,10.256 58.996,10.738C59.801,10.872 60.607,11.007 61.437,11.145C69.105,12.531 69.105,12.531 71.5,15.5C71.919,18.168 72.085,20.42 72.066,23.09C72.073,23.831 72.079,24.572 72.085,25.335C72.092,26.901 72.089,28.467 72.076,30.033C72.063,32.426 72.097,34.816 72.135,37.209C72.136,38.732 72.134,40.255 72.129,41.777C72.142,42.491 72.155,43.205 72.169,43.94C72.101,47.608 71.786,49.196 69.237,51.904C66.739,53.36 64.884,54.2 62.074,54.766C60.88,55.017 60.88,55.017 59.662,55.273C58.845,55.431 58.029,55.588 57.188,55.75C55.934,56.009 55.934,56.009 54.654,56.273C52.605,56.695 50.553,57.099 48.5,57.5C49.658,57.815 50.815,58.129 52.008,58.453C53.547,58.885 55.086,59.317 56.625,59.75C57.386,59.955 58.146,60.16 58.93,60.371C63.699,61.728 67.652,63.232 71.5,66.5C72.262,68.754 72.262,68.754 72.188,71.062C72.191,71.827 72.195,72.591 72.199,73.379C71.5,75.5 71.5,75.5 69.534,76.984C65.549,78.975 61.578,79.897 57.25,80.883C56.336,81.099 55.422,81.314 54.48,81.537C51.488,82.241 48.494,82.933 45.5,83.625C41.321,84.6 37.143,85.579 32.965,86.559C31.914,86.804 30.863,87.049 29.781,87.302C23.086,88.871 16.414,90.514 9.754,92.223C8.094,92.644 6.435,93.065 4.775,93.486C2.454,94.075 0.135,94.668 -2.179,95.282C-22.69,100.709 -38.441,97.257 -58.625,91.938C-61.139,91.288 -63.654,90.641 -66.168,89.995C-69.885,89.041 -73.6,88.085 -77.314,87.121C-84.044,85.377 -90.78,83.676 -97.547,82.082C-98.599,81.834 -98.599,81.834 -99.672,81.581C-102.731,80.863 -105.793,80.155 -108.856,79.455C-109.87,79.217 -110.885,78.979 -111.93,78.734C-113.202,78.444 -113.202,78.444 -114.5,78.147C-116.5,77.5 -116.5,77.5 -118.5,75.5C-119.19,68.366 -119.19,68.366 -116.809,65.379C-111.225,60.835 -103.565,59.128 -96.5,58.5L-96.5,56.5C-97.552,56.444 -97.552,56.444 -98.625,56.387C-105.376,55.919 -111.42,55.21 -117.194,51.375C-119.241,48.437 -118.928,45.329 -118.898,41.875C-118.901,41.132 -118.904,40.388 -118.907,39.623C-118.909,38.052 -118.904,36.482 -118.891,34.912C-118.875,32.509 -118.891,30.107 -118.91,27.703C-118.908,26.177 -118.904,24.651 -118.898,23.125C-118.908,22.047 -118.908,22.047 -118.917,20.947C-118.877,18.106 -118.836,16.015 -117.26,13.597C-115.135,12.273 -113.396,11.794 -110.934,11.324C-109.519,11.047 -109.519,11.047 -108.076,10.764C-107.04,10.574 -106.005,10.383 -104.938,10.188C-103.846,9.978 -102.755,9.769 -101.631,9.553C-90.819,7.501 -79.974,5.618 -69.13,3.744C-59.278,2.035 -49.474,0.16 -39.715,-2.027C-25.926,-4.964 -13.597,-2.682 0,0Z" style="fill:rgb(23,56,80);fill-rule:nonzero;"/>
        </g>
        <g transform="matrix(1,0,0,1,559.1875,339.125)">
            <path d="M0,0C6.112,3.324 9.548,7.21 11.812,13.875C12.721,20.944 12.139,27.077 7.812,32.875C2.818,38.305 -2.146,40.844 -9.562,41.25C-13.803,41.171 -16.734,39.971 -20.363,37.848C-22.379,36.773 -23.922,36.204 -26.188,35.875C-28.133,36.638 -28.133,36.638 -29.98,37.973C-30.689,38.441 -31.398,38.91 -32.129,39.393C-32.87,39.902 -33.611,40.412 -34.375,40.938C-35.901,41.971 -37.427,43.003 -38.953,44.035C-39.683,44.533 -40.414,45.031 -41.166,45.543C-43.577,47.132 -46.097,48.483 -48.625,49.875C-51.21,51.587 -52.033,52.372 -52.953,55.363C-53.236,57.255 -53.48,59.153 -53.688,61.055C-54.642,66.441 -57.697,70.933 -61.996,74.285C-68.109,77.953 -74.198,78.602 -81.188,77.875C-87.874,75.997 -92.276,71.444 -96.188,65.875C-98.454,61.146 -98.365,57.019 -98.188,51.875C-98.899,51.617 -99.61,51.358 -100.343,51.092C-103.383,49.791 -105.947,48.218 -108.707,46.398C-110.239,45.393 -110.239,45.393 -111.803,44.367C-112.858,43.669 -113.913,42.97 -115,42.25C-116.074,41.544 -117.149,40.837 -118.256,40.109C-120.902,38.369 -123.546,36.624 -126.188,34.875C-127.108,35.509 -128.028,36.143 -128.977,36.797C-134.537,40.395 -140.588,41.861 -147.188,40.875C-153.838,38.862 -158.233,34.457 -162.188,28.875C-164.103,23.128 -164.404,16.095 -162.246,10.383C-159.091,5.142 -154.884,1.213 -149.188,-1.125C-142.438,-1.999 -135.981,-2.255 -130.062,1.438C-125.267,5.208 -122.246,9.787 -121.188,15.875C-121.418,17.443 -121.652,19.011 -121.891,20.578C-121.926,24.324 -121.561,25.49 -118.912,28.217C-116.249,30.14 -113.561,31.916 -110.726,33.575C-108.932,34.628 -107.18,35.733 -105.426,36.852C-100.947,39.643 -100.947,39.643 -96.188,41.875C-93.921,41.27 -93.921,41.27 -92.188,39.875C-91.18,39.146 -91.18,39.146 -90.152,38.402C-88.798,37.34 -87.444,36.278 -86.09,35.215C-81.589,32.045 -76.462,32.437 -71.188,32.875C-66.041,34.086 -62.066,36.232 -58.188,39.875C-57.858,40.535 -57.528,41.195 -57.188,41.875C-51.488,39.75 -46.584,36.577 -41.438,33.375C-40.467,32.781 -39.496,32.186 -38.496,31.574C-37.574,31.003 -36.653,30.432 -35.703,29.844C-34.86,29.322 -34.018,28.801 -33.149,28.264C-31.062,27.018 -31.062,27.018 -30.188,24.875C-30.219,23.166 -30.287,21.457 -30.375,19.75C-30.411,14.202 -29.488,10.36 -26.188,5.875C-18.513,-1.799 -9.933,-4.569 0,0Z" style="fill:rgb(22,55,79);fill-rule:nonzero;"/>
        </g>
        <g transform="matrix(1,0,0,1,401,455)">
            <path d="M0,0C8.705,0.499 16.946,2.152 25.426,4.125C26.786,4.436 28.146,4.746 29.506,5.055C33.054,5.864 36.6,6.681 40.146,7.5C45.837,8.813 51.531,10.112 57.224,11.414C59.2,11.866 61.175,12.322 63.149,12.778C64.355,13.055 65.56,13.332 66.802,13.617C67.857,13.861 68.912,14.104 69.999,14.355C81.042,16.728 89.659,15.921 100.602,13.262C102.394,12.84 102.394,12.84 104.222,12.409C108.025,11.511 111.825,10.6 115.625,9.688C157.149,-0.192 157.149,-0.192 166,0C166.054,2.792 166.094,5.583 166.125,8.375C166.142,9.169 166.159,9.963 166.176,10.781C166.193,12.855 166.103,14.929 166,17C163.689,19.311 162.63,19.484 159.488,20.142C158.548,20.342 157.608,20.543 156.639,20.75C155.099,21.067 155.099,21.067 153.527,21.391C152.457,21.618 151.388,21.845 150.285,22.079C146.837,22.81 143.388,23.53 139.938,24.25C135.466,25.188 130.997,26.132 126.527,27.078C125.413,27.312 124.298,27.546 123.15,27.787C117.46,28.995 111.801,30.276 106.161,31.697C105.053,31.975 103.945,32.253 102.803,32.539C100.723,33.066 98.647,33.605 96.574,34.159C86.787,36.642 77.486,36.858 67.711,34.277C66.976,34.096 66.241,33.916 65.484,33.729C63.111,33.144 60.743,32.541 58.375,31.938C55.013,31.102 51.647,30.278 48.281,29.457C47.432,29.249 46.582,29.041 45.707,28.826C39.859,27.409 33.994,26.13 28.094,24.949C27.31,24.792 26.526,24.635 25.718,24.473C21.986,23.731 18.251,23.006 14.513,22.297C13.173,22.034 11.832,21.771 10.492,21.508C9.331,21.288 8.169,21.067 6.972,20.84C3.939,19.983 2.198,19.25 0,17C-0.454,15.099 -0.454,15.099 -0.391,12.988C-0.378,12.231 -0.365,11.474 -0.352,10.693C-0.318,9.908 -0.285,9.122 -0.25,8.312C-0.232,7.515 -0.214,6.718 -0.195,5.896C-0.148,3.93 -0.076,1.965 0,0Z" style="fill:rgb(247,247,247);fill-rule:nonzero;"/>
        </g>
        <g transform="matrix(1,0,0,1,610,587)">
            <path d="M0,0C2.104,-0.081 4.208,-0.139 6.312,-0.188C7.484,-0.222 8.656,-0.257 9.863,-0.293C13,0 13,0 16,3L-1,3C-0.67,2.01 -0.34,1.02 0,0Z" style="fill:rgb(51,78,99);fill-rule:nonzero;"/>
        </g>
        <g transform="matrix(1,0,0,1,353,570)">
            <path d="M0,0C1.458,-0.027 2.917,-0.046 4.375,-0.062C5.187,-0.074 5.999,-0.086 6.836,-0.098C9,0 9,0 11,1C13,1.04 15,1.043 17,1L17,4C14.728,3.913 12.458,3.805 10.188,3.688C8.923,3.629 7.658,3.571 6.355,3.512C3,3 3,3 1.051,1.457C0.704,0.976 0.357,0.495 0,0Z" style="fill:rgb(39,66,89);fill-rule:nonzero;"/>
        </g>
        <g transform="matrix(1,0,0,1,564,487)">
            <path d="M0,0L0,3C-2.97,2.67 -5.94,2.34 -9,2C-8,0 -8,0 -6.188,-0.688C-3.812,-1.027 -2.267,-0.729 0,0Z" style="fill:rgb(219,225,228);fill-rule:nonzero;"/>
        </g>
        <g transform="matrix(1,0,0,1,603,588)">
            <path d="M0,0C0.33,0.99 0.66,1.98 1,3L-9,3C-4.5,-0.375 -4.5,-0.375 0,0Z" style="fill:rgb(41,70,92);fill-rule:nonzero;"/>
        </g>
        <g transform="matrix(1,0,0,1,404,486)">
            <path d="M0,0C2.31,0.33 4.62,0.66 7,1L7,3C4.69,3.33 2.38,3.66 0,4L0,0Z" style="fill:rgb(231,235,237);fill-rule:nonzero;"/>
        </g>
        <g transform="matrix(1,0,0,1,505,399)">
            <path d="M0,0C0.99,0.33 1.98,0.66 3,1C2.67,2.32 2.34,3.64 2,5L0,5C-0.33,5.99 -0.66,6.98 -1,8C-2,6 -2,6 -1.062,2.875C-0.537,1.452 -0.537,1.452 0,0Z" style="fill:rgb(230,234,236);fill-rule:nonzero;"/>
        </g>
    </g>
</svg>
